<svg xmlns="http://www.w3.org/2000/svg" xmlns:xlink="http://www.w3.org/1999/xlink" viewBox="0 0 580.46 477.49"><defs><style>.cls-1{opacity:0.7;}.cls-2{fill:url(#linear-gradient);}.cls-3{fill:#6c63ff;}.cls-4{opacity:0.1;}.cls-12,.cls-17,.cls-4{isolation:isolate;}.cls-5{fill:#eee;}.cls-17,.cls-6,.cls-8{fill:none;stroke-miterlimit:10;}.cls-6{stroke:#e0e0e0;stroke-width:5.1px;}.cls-7{fill:url(#linear-gradient-2);}.cls-8{stroke:#bdbdbd;stroke-width:3.19px;}.cls-9{fill:#b84733;}.cls-10{fill:#f55f44;}.cls-11{fill:#303894;}.cls-12{opacity:0.05;}.cls-13{fill:#fda57d;}.cls-14{fill:#333;}.cls-15{fill:url(#linear-gradient-3);}.cls-16{fill:#4db6ac;}.cls-17{stroke:#535461;stroke-width:0.64px;opacity:0.6;}.cls-18{fill:url(#linear-gradient-4);}.cls-19{fill:#e0e0e0;}.cls-20{fill:#535461;}.cls-21{fill:url(#linear-gradient-5);}.cls-22{fill:#3e3f49;}</style><linearGradient id="linear-gradient" x1="669.91" y1="191.66" x2="669.91" y2="230.59" gradientTransform="matrix(1, 0, 0, -1, -146.88, 405.4)" gradientUnits="userSpaceOnUse"><stop offset="0" stop-color="gray" stop-opacity="0.25"/><stop offset="0.54" stop-color="gray" stop-opacity="0.12"/><stop offset="1" stop-color="gray" stop-opacity="0.1"/></linearGradient><linearGradient id="linear-gradient-2" x1="383.04" y1="-72.09" x2="383.04" y2="405.4" xlink:href="#linear-gradient"/><linearGradient id="linear-gradient-3" x1="146.88" y1="47.16" x2="258.53" y2="47.16" xlink:href="#linear-gradient"/><linearGradient id="linear-gradient-4" x1="518.07" y1="142.99" x2="518.07" y2="144.9" xlink:href="#linear-gradient"/><linearGradient id="linear-gradient-5" x1="416.92" y1="263.55" x2="416.92" y2="364.44" gradientTransform="matrix(1, 0, 0, -1, 0, 481.29)" xlink:href="#linear-gradient"/></defs><title>Asset 1</title><g id="Layer_2" data-name="Layer 2"><g id="Layer_1-2" data-name="Layer 1"><g class="cls-1"><path class="cls-2" d="M535.89,181.77v-7H501.13V207a6.78,6.78,0,0,0,6.78,6.78h21.2a6.78,6.78,0,0,0,6.78-6.78v-7.14a9,9,0,0,0,0-18.08Zm0,14.6V185.24a5.56,5.56,0,1,1,.38,11.12h-.38Z"/></g><path class="cls-3" d="M534.8,182.85a8.25,8.25,0,1,0,8.25,8.25h0A8.25,8.25,0,0,0,534.8,182.85Zm0,13.33a5.1,5.1,0,1,1,5.1-5.1,5.1,5.1,0,0,1-5.1,5.1h0Z"/><path class="cls-4" d="M534.8,182.85a8.25,8.25,0,1,0,8.25,8.25h0A8.25,8.25,0,0,0,534.8,182.85Zm0,13.33a5.1,5.1,0,1,1,5.1-5.1,5.1,5.1,0,0,1-5.1,5.1h0Z"/><path class="cls-3" d="M503,176.5h31.74v29.35a6.22,6.22,0,0,1-6.22,6.22h-19.3a6.22,6.22,0,0,1-6.22-6.22h0V176.5Z"/><path class="cls-4" d="M529.06,176.5v29.35a6.19,6.19,0,0,1-6.19,6.19h3.19a6.19,6.19,0,0,0,6.19-6.19h0V176.5Z"/><path class="cls-5" d="M509.28,152.84a1.85,1.85,0,0,0-1.4.71c-.41.75.34,1.61,1,2.12a13.91,13.91,0,0,1,3.48,3.24,4,4,0,0,1,.19,4.47c-1.23,1.67-4.18,2-4.47,4.09-.19,1.32,1,2.45,2.12,3.11,2.86,1.64,6.55,2.07,8.61,4.64a6.58,6.58,0,0,1,4.68-3.19c1.91-.41,3.89-.4,5.83-.7a2,2,0,0,0,1.62-.87c.54-1.1-1-2.42-.47-3.52.41-.84,1.6-.77,2.46-1.11a3.2,3.2,0,0,0,1.6-3.83,7.24,7.24,0,0,0-2.73-3.55,30.37,30.37,0,0,0-11-5.1A28.24,28.24,0,0,0,515,152,28.74,28.74,0,0,0,509.28,152.84Z"/><line class="cls-6" x1="286.53" y1="219.55" x2="220.17" y2="426.3"/><g class="cls-1"><path class="cls-7" d="M338,449.59c-8.16.47-15.44,7.31-15.44,7.31L319,448.18l-.29.1c1.72-7.52,36.67-162.54,1.68-175.9-26.88-10.27-55.4-23-77.75-22.5V213.23H274V212h24.8c4.75-3.39-2.16-5.74-9.87-7.19a7.06,7.06,0,0,0,.83-1.17l39.72-71.26s9.14-15,3.26-22.19-14.36,18.28-14.36,18.28l-32.63,47s-33-34.34-53.88-51.41a36.67,36.67,0,0,0-7.8-5.9c-3.83-2.58-6.72-3.93-8.15-3.4h0a36.56,36.56,0,0,0-9.75-1.33h-2.61V108a41.87,41.87,0,0,0,25.86-24.5,47,47,0,0,0,3.73-40.95,2.72,2.72,0,0,0,1.1-.38c1.18-.76,1.28-2.42,1.19-3.83a29.07,29.07,0,0,0-14.75-22.73c-3.31-1.81-7.1-3.06-9.53-5.93-2.09-2.47-3-5.92-5.51-7.94-3-2.39-7.36-2-11.06-.91A40.24,40.24,0,0,0,183,6.3c-4,2.74-7.61,6.25-12.21,7.77-3.27,1.08-6.82,1.05-10.11,2.07a17,17,0,0,0-10.92,10.65,22.17,22.17,0,0,0-.93,8.3,46.72,46.72,0,0,0-4.69,10.66l-.74.4.71-.32a47,47,0,0,0,13.23,47.92A41.83,41.83,0,0,0,177.38,108v6.48a49.35,49.35,0,0,0-16,6.56h0s-.41.26-1.13.74l-.22.15c-4.83,3.28-21,15.25-20.46,28.19v1.5A49.77,49.77,0,0,0,138.22,163V257a46.12,46.12,0,0,0,9.88,28.61c-13.62,3.05-22.3,7.66-22.3,12.83a4.18,4.18,0,0,1,0,1.28c0,9.19,27.44,16.64,61.34,16.64,4.1,0,8.1-.11,12-.32l38.29,31-61.32,98.58s-20.23,15.66-4.57,20.89,47.64,9.14,47.64,9.14,5.22-9.14-2-13-17-2-17-2l1.28-7.83s106.37-91.37,84.19-122.68c-4.24-6-8.49-12.18-12.76-18.26l16.74,1.53,3.83,143.42.48-.15c-1,2.82-7.72,24.08,7.27,20.48,16.05-3.83,45.26-17.44,45.26-17.44S346.12,449.11,338,449.59ZM274,202.8l-31.33-9.09v-26.8l34,36.11Z"/></g><circle cx="190.18" cy="63.21" r="45.94"/><path class="cls-3" d="M242.5,168.5l35.06,37.22a6.85,6.85,0,0,0,11-1.36l38.84-69.68-10.85-3.83L284.62,176.8s-59.9-62.43-68.28-59.34S242.5,168.5,242.5,168.5Z"/><line class="cls-8" x1="175.5" y1="297.4" x2="123.81" y2="431.41"/><line class="cls-8" x1="201.03" y1="297.4" x2="252.71" y2="431.41"/><ellipse class="cls-9" cx="188.26" cy="298.36" rx="59.98" ry="16.27"/><ellipse class="cls-10" cx="188.26" cy="297.08" rx="59.98" ry="16.27"/><line class="cls-8" x1="163.02" y1="326.84" x2="219.62" y2="344.28"/><line class="cls-8" x1="213.5" y1="326.84" x2="156.91" y2="344.28"/><path class="cls-3" d="M189,116.16h17.81A35.73,35.73,0,0,1,242.5,151.9v94.44H140.41V164.73a48.55,48.55,0,0,1,48.54-48.57Z"/><path class="cls-11" d="M140.41,246.34H242.5v55.52H185.71a45.31,45.31,0,0,1-45.31-45.31h0V246.34Z"/><path class="cls-12" d="M141.78,154.49l62.43,59.34h68.92V204.9l-59.34-17.23L163,125S140,139.21,141.78,154.49Z"/><path class="cls-3" d="M141.78,153.21l62.43,59.34h68.92v-8.93L213.79,186.4,163,123.71S140,137.93,141.78,153.21Z"/><path class="cls-13" d="M273.13,203.6s33.18,2.55,24.25,8.93H273.13Z"/><path class="cls-13" d="M316.53,130.85s8.3-24.89,14-17.87-3.19,21.7-3.19,21.7Z"/><polygon class="cls-12" points="140.41 246.35 140.41 249.33 242.5 249.54 242.5 246.35 140.41 246.35"/><path class="cls-11" d="M219.83,305.4l68.66,6.26,3.74,140.22,24.59-8S353.59,285,318.52,271.59s-73-31-95.6-16.65S219.83,305.4,219.83,305.4Z"/><path class="cls-4" d="M224,262.31s37.65,19.14,42.75,40.84"/><path class="cls-11" d="M183.8,301.23l53.6,43.39-60,96.36,24.89,7s104-89.34,82.32-120-43.39-66.36-70.19-67S183.8,301.23,183.8,301.23Z"/><polygon class="cls-12" points="268.03 160.21 281.43 183.18 284.62 176.8 268.03 160.21"/><path class="cls-14" d="M177.42,441s-19.78,15.31-4.47,20.42,46.58,8.93,46.58,8.93,5.1-8.93-1.91-12.76S201,455.65,201,455.65L202.3,448Z"/><path class="cls-14" d="M292.8,451.45s-8.69,24.1,7,20.33,44.26-17.06,44.26-17.06-.39-10.28-8.37-9.82S320.62,452,320.62,452l-3.44-8.53Z"/><path class="cls-13" d="M191.46,93.84h0a12.76,12.76,0,0,1,12.76,12.76v12.76a12.76,12.76,0,0,1-12.76,12.76h0a12.76,12.76,0,0,1-12.76-12.76V106.61A12.76,12.76,0,0,1,191.46,93.84Z"/><path class="cls-12" d="M191.46,95.12a12.76,12.76,0,0,0-12.76,12.76v4.34a40.84,40.84,0,0,0,25.52,0v-4.34A12.76,12.76,0,0,0,191.46,95.12Z"/><circle class="cls-13" cx="191.46" cy="72.15" r="40.84"/><path class="cls-12" d="M150.62,70.29s10.21,2.63,16-9,10.21-17.93,33.82-11.08,28.36,7.7,29.49,1.21c.78-4.43-7.62-15.19-13-21.56a15.08,15.08,0,0,0-11.49-5H178.69l-16,7.38L150.62,42.86,148.06,57.1Z"/><path d="M150.62,69s10.21,2.63,16-9S176.78,42.11,200.39,49s28.36,7.7,29.49,1.21c.78-4.43-7.62-15.19-13-21.56a15.08,15.08,0,0,0-11.49-5H178.69l-16,7.38L150.62,41.58l-2.55,14.24Z"/><ellipse class="cls-13" cx="154.76" cy="68.96" rx="4.15" ry="8.3"/><path d="M151.8,47.61c-.94-5.34-1.88-11-.15-16.09A16.59,16.59,0,0,1,162.33,21.1c3.19-1,6.69-1,9.88-2,4.5-1.48,8-4.92,11.94-7.6a39.35,39.35,0,0,1,11.29-5.33c3.61-1,7.87-1.45,10.82.89,2.48,2,3.34,5.35,5.39,7.76,2.39,2.81,6.09,4,9.32,5.79a28.42,28.42,0,0,1,14.42,22.25c.11,1.37,0,3-1.16,3.74a4.14,4.14,0,0,1-2.33.43c-16.32-.24-32.67-.47-48.92-2a117.47,117.47,0,0,0-15.19-.86,49.68,49.68,0,0,0-22.33,6.31"/><g class="cls-1"><path class="cls-15" d="M111,330.74a21.7,21.7,0,0,0-8.6-23A59.41,59.41,0,0,1,96.68,304c-2.91-2.45-4.58-6.07-5.77-9.69C88,285.69,87.1,276,82,268.14c-4.61-7.13-13.57-9.21-21.53-9.92-2.9-.26-5.94-.4-8.59.8-4.43,2-6.55,7.24-6.74,12.12s1.07,9.66,1.38,14.51-.55,10.21-4.13,13.49-8.71,3.68-13.46,4.34A89.15,89.15,0,0,0,10.72,308C5.76,309.82.24,313.07,0,318.34c-.19,4.31,3.29,7.75,5.9,11.17,4.88,6.38,7.32,14.86,5.67,22.74s-7.32,14.91-8.35,23A10,10,0,0,0,4,381.39a11.14,11.14,0,0,0,3.08,3.26c3.06,2.37,6.48,4.27,9.38,6.83,6,5.35,9.32,13.12,11.84,20.79.24.74.46,1.49.69,2.23H23.09a22,22,0,0,0-22,22h0a22,22,0,0,0,22,22H82.43a22,22,0,0,0,22-22h0a22,22,0,0,0-22-22H66.13c3.83-5.15,7.86-10,13.8-12s13.11-.82,17.77-5a13.92,13.92,0,0,0,4-8,23.8,23.8,0,0,0-2.6-15.8c-1.87-3.34-4.6-6.38-5.19-10.15-.5-3.23.64-6.5,2.24-9.37C100.66,346.07,108.6,339.73,111,330.74Z"/></g><path class="cls-16" d="M60.28,263c-2.76-.25-5.65-.38-8.18.77-4.22,1.91-6.23,6.9-6.43,11.52s1,9.2,1.31,13.82-.52,9.71-3.94,12.85-8.3,3.5-12.82,4.13a84.87,84.87,0,0,0-17.38,4.31c-4.72,1.72-10,4.82-10.21,9.84-.18,4.1,3.13,7.38,5.62,10.64,4.65,6.11,7,14.15,5.39,21.66-1.61,7.66-7,14.2-7.94,21.94a9.52,9.52,0,0,0,.78,5.79,10.6,10.6,0,0,0,2.94,3.11c2.92,2.25,6.17,4.06,8.93,6.51,5.74,5.1,8.87,12.49,11.27,19.78a160.35,160.35,0,0,1,5.53,22c5-3.19,11.36-3.14,16.65-5.74,11.26-5.52,15.05-21.52,26.95-25.52,5.63-1.88,12.49-.78,16.92-4.72A13.15,13.15,0,0,0,99.51,388a22.66,22.66,0,0,0-2.46-15c-1.78-3.19-4.38-6.06-5-9.66-.48-3.08.64-6.19,2.13-8.93,4.28-7.77,11.84-13.8,14.14-22.37a20.66,20.66,0,0,0-8.19-21.9,60.59,60.59,0,0,1-5.49-3.55c-2.78-2.34-4.35-5.78-5.5-9.22-2.75-8.25-3.62-17.51-8.44-25C76.39,265.63,67.85,263.64,60.28,263Z"/><path class="cls-17" d="M60.19,263.25S70.66,403.39,43.45,427.48"/><rect class="cls-3" x="3.72" y="411.78" width="98.33" height="41.84" rx="20.92" ry="20.92"/><path class="cls-17" d="M2.67,317.64s26.74-3.12,59.4,16.74"/><path class="cls-17" d="M61.54,351.11s14.86-24.58,46.77-29.28"/><path class="cls-17" d="M5.28,374.67s37.07-6.29,54.1,4.18"/><path class="cls-17" d="M57.27,393.21s19.41-8.81,41.24-1.65"/><path class="cls-18" d="M371.19,262.41a1,1,0,1,0-1-1A1,1,0,0,0,371.19,262.41Z"/><line class="cls-6" x1="511.64" y1="219.55" x2="578" y2="455.71"/><rect class="cls-19" x="219.9" y="212.63" width="358.37" height="13.96"/><path class="cls-20" d="M312.38,209.34h50.41a4.15,4.15,0,0,1,4.15,4.15h0a4.15,4.15,0,0,1-4.15,4.15H312.38a4.15,4.15,0,0,1-4.15-4.15h0A4.15,4.15,0,0,1,312.38,209.34Z"/><g class="cls-1"><rect class="cls-21" x="343.96" y="116.85" width="145.91" height="100.89" rx="18.01" ry="18.01"/></g><rect class="cls-22" x="346.56" y="118.71" width="138.22" height="99.02" rx="17.13" ry="17.13"/><rect class="cls-20" x="348.48" y="118.71" width="138.22" height="99.02" rx="17.13" ry="17.13"/><circle class="cls-19" cx="424.05" cy="167.55" r="4.47"/></g></g></svg>