<svg xmlns="http://www.w3.org/2000/svg" viewBox="0 0 590.15 470.4"><defs><style>.cls-1{fill:#4db6ac;}.cls-2{fill:#fdbe82;}.cls-3{fill:#fdc798;}.cls-4{fill:#fcd2ca;}.cls-5{fill:#fda003;}.cls-6{fill:#fdb51d;}.cls-7{fill:#262c45;}.cls-8{fill:#fd8103;}.cls-9{fill:#682210;}.cls-10{fill:#fda57d;}.cls-11{fill:#fbfaf6;}.cls-12{fill:#fdaf71;}.cls-13{fill:#282f39;}.cls-14{fill:#f8f7f3;}.cls-15{fill:#fdb340;}.cls-16{fill:#464943;}.cls-17{fill:#e5dddc;}.cls-18{fill:#fdfdfc;}.cls-19{fill:#7a7a78;}.cls-20{fill:#fdd3cc;}.cls-21{fill:#c7c7c5;}.cls-22{fill:#9b4d29;}.cls-23{fill:#fd4422;}.cls-24{fill:#6c63ff;}.cls-25{fill:#98351d;}.cls-26{fill:#fdf0ec;}.cls-27{fill:#dbb6b0;}.cls-28{fill:#bcbcbb;}.cls-29{fill:#fe543f;}.cls-30{fill:#303894;}.cls-31{fill:#333;}</style></defs><title>Asset 3</title><g id="Layer_2" data-name="Layer 2"><g id="Layer_1-2" data-name="Layer 1"><path class="cls-1" d="M7.25,435.15l-1.66.31a9.38,9.38,0,0,0-4,1.42,3.56,3.56,0,0,0-1.4,3.9A4.83,4.83,0,0,0,2.61,443c24.56,13.45,52.8,16.61,79.79,20.84,52,8.16,105.06,6.65,157.5,5.92,99.59-1.37,199.39-6,298.84-11.66,10.44-.72,20.92.23,31.36-1.15,7.38-1,26.05-8.45,18.14-19.14-12-16.22-40.58-10.54-57.32-12.69-67.72-8.69-394.4-8.69-425.76-6C72.23,422,39.72,429.06,7.25,435.15Z"/><path class="cls-2" d="M78.11,161.35c13.06-.2,26.12-.38,39.18-.63,4.69-.09,9.38-.46,14.07-.52q32.93-.41,65.86-.72h.63c6.4-.26,6.4-.26,6.42,6.35,0,2.93,0,5.86,0,8.79,0,1.72-.75,2.52-2.45,2.47h-.63c-14.21.22-28.42.47-42.64.64-20.07.25-40.14.45-60.21.7a13.77,13.77,0,0,0-2.66.56H77.31ZM195,170.64a48.09,48.09,0,0,1-1.23-6.73c-.09-2.18-1.06-2.57-2.94-2.53-17.4.34-34.8.58-52.19.94-12.2.25-24.39.7-36.59.95-6.45.13-12.91,0-19.36.06-.78,0-2.2.27-2.24.56a17.93,17.93,0,0,0-.14,5.85c.11.57,2.21,1.06,3.4,1.06q53.8.08,107.6,0C192.39,170.82,193.5,170.72,195,170.64Z"/><path class="cls-2" d="M114.66,138.07l24.33-.36a6.85,6.85,0,0,0,2.23,1c2,.12,4.05,0,6.08,0,13.79,0,27.57.16,41.36.08,2.53,0,3.26.8,3.16,3.23-.17,4.07-.16,8.15,0,12.22.08,2.24-.75,2.89-2.9,2.81-13.43-.46-26.87-1-40.31-1.19-12.84-.21-25.69-.08-38.54-.16-3.53,0-7.06-.29-10.59-.44-10.28-.11-20.56-.2-30.85-.35-1.74,0-3.24-.4-3.14-2.83.17-4.26.15-8.54.05-12.81,0-2,.84-2.45,2.63-2.41,5.21.1,10.41.08,15.62.11-.4.4-.81,1.14-1.21,1.14a46.39,46.39,0,0,1-7.65-.3c-6.24-1-6.82-.55-6.86,5.71,0,2.52.74,3.51,3.39,3.53,15.45.11,30.89.47,46.34.55,20.8.11,41.6,0,62.41,0,1.07,0,2.14-.17,3.3-.27a25.46,25.46,0,0,1-.47-3.8c.08-2.26-1-2.82-3.09-2.86-8.55-.14-17.1-.39-25.64-.6-8.08-.2-16.17-.43-24.25-.62q-14.23-.34-28.47-.63c-1.68,0-3.36,0-5,0a44.66,44.66,0,0,1,9-.64C108.6,138.16,111.63,138.11,114.66,138.07Z"/><path class="cls-2" d="M99.45,116.14l3.45.08c14,.23,28,.37,42,.7,11.37.27,22.73.8,34.1,1.1,2,.05,2.82.57,2.74,2.68-.14,4.07-.13,8.16,0,12.24,0,2-.51,2.82-2.64,2.79-20.9-.3-41.8-.5-62.71-.78-3.54,0-7.07-.34-10.61-.51l-3.13,0H99.48L82,134.31c-.77-.36-1.52-1-2.29-1-3.89-.08-7.79,0-11.68,0-3.54,0-7.09-.18-10.63-.11-1.9,0-2.58-.63-2.53-2.54.12-4.17.18-8.34,0-12.51-.09-2.55,1-3.23,3.33-3.15,13.1.45,26.2.8,39.31,1.17C98.2,116.21,98.83,116.16,99.45,116.14Zm-9.71,2h0c-9.41,0-18.82.09-28.22,0-3.58-.05-3.29,2.31-3.48,4.59-.22,2.51.21,4.25,3.37,4.29,6.35.07,12.7.51,19.06.56,13.17.1,26.34,0,39.51.07,4.47,0,8.94.44,13.41.62,10.19.42,20.39.87,30.59,1.11.87,0,2.66-1.71,2.52-2.09-.84-2.36,1-5.74-2.07-7.1-1.73-.75-3.88-.66-5.84-.72-14.27-.46-28.54-.94-42.82-1.24C107.09,118,98.42,118.11,89.74,118.11Z"/><path class="cls-2" d="M56.17,223.57q61.61,0,123.21-.11c2.32,0,3.13.66,3,3-.18,4.7-.1,9.4-.13,14.1-1.88,0-3.75.07-5.63.07l-49.43.08c-.73-.06-1.45-.19-2.18-.19q-33.1,0-66.2,0a22.16,22.16,0,0,0-2.77.34l0-.22Zm85.12,11.3h22c6.5,0,6.33,0,5-6.51-.49-2.39-1.38-3-3.65-3-24.64.28-49.29.43-73.93.69-9.49.1-19,.52-28.47.54-2.84,0-3,1.36-2.92,3.48s-.14,3.58,2.82,3.58c7.19,0,14.38.39,21.57.54,11.58.25,23.16.48,34.74.62C126,234.93,133.65,234.86,141.28,234.87Z"/><path class="cls-3" d="M114.66,138.07c-3,0-6.06.08-9.09.1a44.66,44.66,0,0,0-9,.64c1.68,0,3.36,0,5,0q14.23.3,28.47.63c8.08.19,16.17.42,24.25.62,8.55.21,17.1.46,25.64.6,2,0,3.17.6,3.09,2.86a25.46,25.46,0,0,0,.47,3.8c-1.15.1-2.23.27-3.3.27-20.8,0-41.6.08-62.41,0-15.45-.08-30.89-.44-46.34-.55-2.66,0-3.41-1-3.39-3.53,0-6.26.63-6.74,6.86-5.71a46.39,46.39,0,0,0,7.65.3c.41,0,.81-.74,1.21-1.14h4.42c-.06,2.45,1.8,1.82,3.11,1.8s3.17.71,3.13-1.77l5-.11c4.1,0,8.21,0,12.31.12A9.87,9.87,0,0,1,114.66,138.07Z"/><path class="cls-4" d="M68.06,133.32c3.9,0,7.79-.12,11.68,0,.77,0,1.53.68,2.29,1-3.91,0-7.82.13-11.72.05C69.56,134.35,68.81,133.69,68.06,133.32Z"/><path class="cls-2" d="M94.43,137c0,2.48-1.84,1.75-3.13,1.77s-3.16.65-3.11-1.8Z"/><path class="cls-4" d="M78.77,200.35l6.3-.42Z"/><path class="cls-4" d="M61.31,182.22,60,183.47Z"/><path class="cls-4" d="M60,199.55l1.28,1.32Z"/><path class="cls-5" d="M481.81,317.73c21-2.4,38.4,4.47,52.45,20.12.13.14.13.39.19.59l-7.57,0L521.17,334a3.53,3.53,0,0,0,.16-.56l.73-.19-.83-.19-6.17-2.12c-6.79-5-14.85-6.17-22.86-7.31-.8-.11-2.31,1.26-2.59,2.21-.19.64,1.19,1.77,1.93,2.62a7.52,7.52,0,0,0,1.32,1L462.3,327.8c5.26-4.19,11-7.43,17.66-8.85C480.63,318.81,481.19,318.15,481.81,317.73Z"/><path class="cls-6" d="M435.3,140.67c0-1.63,0-3.24.09-4.86,0-.94,2.23-2.5,3.07-2.62,1.8-.25,2.9,1.48,3.25,3.09.64,2.91-.33,6-.37,8.92q0,2-.05,3.94l-.43,2.89-.46,11.23c-.21,3.59-.49,7.18-.62,10.77-.07,2-.4,5.57-2.61,6.53s-3.68-1.84-3.69-3.72c0-3.35.28-6.74.42-10.09q.41-9.88.84-19.76C434.83,144.87,435.11,142.77,435.3,140.67Z"/><path class="cls-7" d="M441.29,149.14q0-2,.05-3.94a12,12,0,0,1,6.63,8.65,15.74,15.74,0,0,0,1.56,3c1.77-4.8-2-10.81-5.61-12.78-2.3-1.27-2.67-2.66-1.06-4.66,1.68,1.36,3.34,2.76,5,4.08,8.69,6.7,7.5,23.83-2.32,29.1-1.89,1-3.92,1.76-5.88,2.63l.69-12A6.58,6.58,0,0,0,441.6,152Z"/><path class="cls-2" d="M521.17,334l5.71,4.52a3.72,3.72,0,0,0,.56,1.1A55.55,55.55,0,0,1,543,365.1l-5.81-.21c-1.14-7-5-12.58-9.42-17.74-2.41-2.78-5.42-5-8.16-7.52l-5.78-4.87Z"/><path class="cls-8" d="M543,365.1a55.55,55.55,0,0,0-15.53-25.53,3.72,3.72,0,0,1-.56-1.1l7.57,0c6.93,7.67,11.24,16.62,13.72,27.27Z"/><path class="cls-9" d="M351.88,56.12q0-1.65,0-3.3l28.22-.18,4.49.48-.33,3.55-.17,1.09-.22,5.07c-.78,1.44.48,4.23-2.45,4-.34,0-.8-3-.68-4.52.47-5.84.55-5.79-5.12-5.85C367.71,56.41,359.8,56.25,351.88,56.12Z"/><path class="cls-10" d="M380.1,52.64l-28.22.18c-.38-5.39,3-7.28,8.11-6.75,6.75.7,13.4,2.36,20.1,3.61Z"/><path class="cls-5" d="M435.39,135.81l-.11,2.75c-8.58-.44-16.72,5.3-18.59,16.45-2.63-1-5.26-2.47-8.06-3-3.36-.63-6.16,1-8.41,3.64-.64.76-2,.92-3,1.36a12.32,12.32,0,0,1,14.08-7.12c2.39.51,3.51,0,4.58-2.15C419.87,139.77,426.39,135.72,435.39,135.81Z"/><path class="cls-11" d="M442.81,139.42c-.35.88-1.14,1.67-.9,2.68.2.84,1,1.32,1.77,1.78,4,2.49,7.64,8.07,5.65,12.94-.33-1-1.11-1.9-1.36-3a12,12,0,0,0-6.63-8.65c-1.65-.8.11-8.28.3-9.71-.16,1.19,1.26,1.95,1.33,3.07A1.94,1.94,0,0,1,442.81,139.42Z"/><path class="cls-12" d="M383,49.25l1.56-.72Z"/><path class="cls-12" d="M384.09,57.75l.17-1.09.54.48Z"/><path class="cls-6" d="M146.54,336.39c0,1.82.3,3.44-2.11,4.52-1.56.7-2.5,3.21,0,4.39,2.27,1.06,2.12,2.72,2.1,4.59,0,4.53.05,4.76,4.43,3.67a36.9,36.9,0,0,0,10.27-3.75c5.33-3.25,5.52-6.53,1.54-11.45a5.51,5.51,0,0,1-.54-1.09c5.93-3.36,11.65-7.19,17.85-10a71.3,71.3,0,0,1,24.72-6.19c9.91-.63,19.85-1.31,29.36,2.38,3.93,1.53,7.62,3.88,8.83,8.23.93,3.34.88,6.94,1.63,10.34a4.44,4.44,0,0,0,2.53,2.89c.69.2,2.66-1.27,2.77-2.16.71-5.6,0-11-3.23-15.88-3.86-5.81-9.59-8.89-16.13-10.3a77.76,77.76,0,0,0-22.68-1.42,101.7,101.7,0,0,0-24.7,5c-9.52,3.24-18.16,8.19-26.42,13.85l-6.69-1.85a13,13,0,0,1,1.81-2.5A116.66,116.66,0,0,1,176.8,314a102.74,102.74,0,0,1,26-8c12.8-2.24,25.65-2.58,38.35.49,9.29,2.24,15.77,8.05,18.06,17.41a29.07,29.07,0,0,1-.15,12.11c-2.12,10.82-6.8,20.71-12.47,30.1-2.63,4.36-5.59,8.52-8.37,12.79a9.83,9.83,0,0,0-.71,1.7l-13.79-.6-20.67-1.74-33.37-2.67L141,373.2q-10.33-1-20.67-2c-.71-.07-1.41-.27-2.12-.4.89-1.93,1.75-3.87,2.69-5.78s2-3.93,3.06-5.89l5.21-6.23a34.15,34.15,0,0,1,3-3.54,8.79,8.79,0,0,0,3.16-7.09c0-5.1,5.1-10.07,10.23-10.24.5,0,1,1.09,1.56,1.67-7.63,2-11.51,6.53-8.49,10.38C140.41,340.6,141.1,335.94,146.54,336.39Zm75.95,18.27L221,353c-.76.68-2.14,1.34-2.16,2-.07,2.23-.58,3.51-3.12,3.68-.67,0-1.24,1.55-1.85,2.39.87.38,1.77,1.12,2.61,1.07C219.9,362,222.58,358.8,222.49,354.66Zm-13.78-1.06c.24.26.82,1.47,1.66,1.7,1.88.51,2.26-.9,2.12-2.43-.21-2.18,1.52-2.32,2.88-3,.65-.33,1-1.28,1.47-1.95-.68-.43-1.35-1.22-2.05-1.24C211.25,346.54,208.72,349.13,208.71,353.6Z"/><path class="cls-8" d="M124,359.17c-1,2-2.08,3.91-3.06,5.89s-1.8,3.85-2.69,5.78c-7.66-.34-15.33-.64-23-1.07-.93-.05-1.83-.8-2.74-1.23,1.06-.46,2.46-.67,3-1.48a2.94,2.94,0,0,0-.73-2.82c-2.12-1.25-2.57,1-3.5,2.13a5.4,5.4,0,0,1,4.2-8.28c1.75-.13,3.51-.11,5.27-.16,4.51.41,9,.92,13.54,1.19C117.52,359.31,120.74,359.17,124,359.17Z"/><path class="cls-13" d="M91.3,366.37c.92-1.16,1.38-3.38,3.5-2.13a2.94,2.94,0,0,1,.73,2.82c-.58.8-2,1-3,1.48l-.49-.37-.71-1.81Z"/><path class="cls-4" d="M135.31,305.1l2,1.83Z"/><path class="cls-8" d="M91.3,366.35l.71,1.81Z"/><path class="cls-3" d="M147.3,138.71c-2,0-4.06.17-6.08,0a6.85,6.85,0,0,1-2.23-1c2,0,4.06-.18,6.07-.07A6.76,6.76,0,0,1,147.3,138.71Z"/><path class="cls-4" d="M102.61,134.42l3.13,0Z"/><path class="cls-14" d="M458,440.93l.06,0,1.16.92,15.42,7.48c.3-.44.86-1.25,1.38-2.08,2.12-3.36,5-4.39,8.42-2.57,4,2.09,7.77,4.53,11.64,6.82a12.91,12.91,0,0,1-3.37,1c-9.2.12-18.41.09-27.61.17q-42.49.34-85,.73c-12.54.12-25.08.39-37.62.57-1.8,0-3.53.49-4.3-2.27s-.31-4.49,1.74-6c3.22-2.4,7.05-2.32,10.51-1.31,5.71,1.67,11.2,4.05,17,6.21.77-6.35,5.21-10.43,11.4-13l1.51-.66c9.26-1.75,17.72,1.17,26,4.77,6.34,2.77,12.46,6,18.85,9.14a4.46,4.46,0,0,0,0-1.38c-2.09-6.37,1.81-9.51,7.19-10.61a15.42,15.42,0,0,1,4.63-.54C444,439.1,451,440,458,440.93Z"/><path class="cls-8" d="M351.88,56.12c-.18,5.89.6,11.92-2.62,17.35L344,76.16,336.06,75a20.68,20.68,0,0,1,3.48-.8c4.44-.26,6.57-2.46,6.67-6.84.14-5.73.08-11.48.7-17.16s3.07-9.58,9.84-9.31a83.18,83.18,0,0,1,14.5,1.4c5.86,1.27,12.91,2.5,17-4.69.16-.28.73-.33,1.11-.49.83,6.66-.32,9.4-4.8,11.42l-1.56.72-2.9.43c-6.69-1.25-13.34-2.9-20.1-3.61-5.08-.53-8.49,1.36-8.11,6.75Q351.88,54.47,351.88,56.12Z"/><path class="cls-15" d="M368.57,34c-10.05-.28-18.68-4.17-23.37-13-4.27-8-1.91-13.81,8.6-15.2,9.08-1.2,22.24,5.75,25.92,14,2.67,6,1.29,13.54-8.32,14.23C370.46,34.06,369.51,34,368.57,34Z"/><path class="cls-5" d="M387.72,26.06c-3.23-13.72-13.41-21.9-25.46-24.55a60.18,60.18,0,0,0-33.06,1.78c-7.64,2.65-13.62,7.39-17,15-4.24,9.43-3.39,19-.43,28.46,1.6,5.11,4.13,9.94,6.24,14.9l1.11.75h0l1.61,2.9L330.45,73l.14,1,5.48,1a20.67,20.67,0,0,1,3.48-.8c4.44-.26,6.57-2.46,6.67-6.84.14-5.73.08-11.48.7-17.16s3.07-9.58,9.84-9.31a83.18,83.18,0,0,1,14.5,1.4c5.86,1.27,12.91,2.5,17-4.69.16-.28.73-.33,1.11-.49q0-1.87,0-3.73C388.82,30.93,388.29,28.49,387.72,26.06Zm-64,36.21c.81,0,1.61,0,2.42,0C325.37,62.25,324.56,62.26,323.76,62.27ZM371.39,34c-.94.07-1.88,0-2.82,0-10.05-.28-18.68-4.17-23.37-13-4.27-8-1.91-13.81,8.6-15.2,9.08-1.2,22.24,5.75,25.92,14C382.39,25.73,381,33.31,371.39,34Z"/><path class="cls-2" d="M71.18,219.86c0-5.21-.07-10.22.09-15.22,0-.63,1.11-1.4,1.87-1.77a5.36,5.36,0,0,1,2.17-.07h118c4.05,0,4.05,0,4.06,4.13,0,3-.18,6.08.06,9.1s-.63,3.95-3.75,3.92c-16.21-.15-32.43-.07-48.65-.07Zm58.59-15.13H103.12c-9,0-18,.06-27,0-2.28,0-3.37.6-3.05,3a10.29,10.29,0,0,1,0,2.19c-.14,1.73.56,2.39,2.34,2.43,3.85.09,7.69.43,11.53.58,11.56.44,23.11.94,34.67,1.24,19.39.5,38.8.77,58.19,1.37,3.31.1,4.91-.75,6-3.91,1.89-5.5,1.15-6.84-4.61-6.84Z"/><path class="cls-2" d="M190.33,240l-.21,2Z"/><path class="cls-3" d="M195,170.64c-1.47.07-2.58.18-3.69.18q-53.8,0-107.6,0c-1.19,0-3.29-.49-3.4-1.06a17.93,17.93,0,0,1,.14-5.85c0-.29,1.46-.55,2.24-.56,6.45,0,12.91.08,19.36-.06,12.2-.25,24.39-.69,36.59-.95,17.4-.36,34.8-.6,52.19-.94,1.88,0,2.85.35,2.94,2.53A48.09,48.09,0,0,0,195,170.64Z"/><path class="cls-3" d="M89.74,118.11c8.68,0,17.35-.15,26,0,14.27.3,28.55.78,42.82,1.24,2,.06,4.12,0,5.84.72,3.12,1.36,1.23,4.74,2.07,7.1.14.38-1.65,2.11-2.52,2.09-10.2-.24-20.39-.69-30.59-1.11-4.47-.19-8.94-.59-13.41-.62-13.17-.09-26.34,0-39.51-.07-6.35,0-12.7-.49-19.06-.56-3.16,0-3.59-1.78-3.37-4.29.2-2.28-.1-4.64,3.48-4.59,9.4.14,18.81,0,28.22,0Z"/><path class="cls-3" d="M141.28,234.86c-7.63,0-15.26.07-22.89,0-11.58-.14-23.16-.37-34.74-.62-7.19-.15-14.38-.56-21.57-.54-3,0-2.78-1.59-2.82-3.58s.09-3.47,2.92-3.48c9.49,0,19-.44,28.47-.54,24.64-.26,49.29-.41,73.93-.69,2.27,0,3.17.56,3.65,3,1.33,6.55,1.5,6.51-5,6.51Z"/><path class="cls-15" d="M127.23,240.74,126,241.81h-4.12q-31.18,0-62.36-.13a15.51,15.51,0,0,1-3.43-.81,22.6,22.6,0,0,1,2.77-.34q33.1,0,66.2,0C125.78,240.56,126.51,240.68,127.23,240.74Z"/><path class="cls-3" d="M119.56,193.43c-6.69,0-13.39-.07-20.08,0q-15.66.22-31.31.64c-5.59.16-6.73-.8-6.27-6.43a4,4,0,0,1,1.94-2.46,6.27,6.27,0,0,1,3-.54c15.56-.24,31.13-.42,46.69-.66,11.54-.18,23.08-.32,34.62-.67,6.13-.19,12.25-.88,18.38-1.1a3.72,3.72,0,0,1,2.85,1.93,24.07,24.07,0,0,1,1.38,6.67c0,.6-1.29,1.8-2.06,1.87-2.7.24-5.43.1-8.15.1-4.59,0-9.18-.06-13.76,0-9,.16-17.95.4-26.92.61Z"/><path class="cls-15" d="M121.45,248.09a28.82,28.82,0,0,0,4.73-.29c1.68-.37,3.12-.79,3.52,1.53-3.6.53-7.25,1.76-10.64-.72Z"/><path class="cls-8" d="M320.55,368.51c-4.29,0-8.66.57-12.84-.1-3.38-.54-6.67-2.27-9.73-4-9.46-5.23-15.65-13.56-19-23.47-2.42-7.17-3.76-14.92-1.56-22.69,1.12-4,1.8-8.06,2.94-12,.36-1.24,1.57-2.24,2.39-3.34l12.6,0,10,.36,20.1.6q0,18.74.09,37.48l-3.49,10.45,1.65,1.16-.07,2.38c-.62,1-1.61,2-1.8,3C321.26,361.76,321,365.15,320.55,368.51Z"/><path class="cls-16" d="M391.46,415.55a19.59,19.59,0,0,1-17.87,8.72c-15.51-.71-31-1.73-46.52-2.58-5.31-.29-10.62-.48-15.93-.71l-3-.38-8.29-.46a11.89,11.89,0,0,0,.18-2.14c-.19-2-.66-4-3.21-4.21-9.35-.66-18.69-1.31-28-1.85-6-.35-12.09-.4-18.12-.76-4.52-.27-9-.81-13.77-1.26.13-2.34.23-4.2.33-6.06s.36-3.95.34-5.92c-.07-5-2.54-8-7.38-8.88-3.37-.58-6.82-.74-10.23-1.09a31.91,31.91,0,0,1,1.21-3.29c.78-1.59,1.7-3.11,2.56-4.66l13.79.6,4.94.83c0,2.39,0,4.56,0,6.73.27,10.37,8.88,19.2,19.58,19.83,25.74,1.53,51.51,2.7,77.26,4.1,16.68.91,33.35,2,50,3A13.51,13.51,0,0,1,391.46,415.55Z"/><path class="cls-6" d="M285.79,375.47c12.58.63,25.37,1.26,38.16,1.92,7.48.39,15,.76,22.44,1.25,11.62.76,23.23,1.64,34.85,2.43,2,.13,4,0,6,.07,3.14.08,5.49,2.21,5.42,4.86a5.7,5.7,0,0,1-5.63,5.14c-7.78-.48-15.55-1.11-23.32-1.74-3.36-.27-6.94-1.63-10-.86-5.81,1.45-11.26-.29-16.86-.52-13.32-.53-26.63-1.25-39.94-1.88-4.58-.22-9.15-.45-13.73-.6-3.69-.12-6.59-2.36-6.61-5.26s2.7-4.76,6.54-4.81Z"/><path class="cls-17" d="M478.08,362l8.17,10.21,6.72,9.59c2.08,3,4.09,6,6.26,8.87a11.84,11.84,0,0,1-1.75,16c-5.2,4.33-11.56,4.22-16.15-.62-2.33-2.46-4.28-5.29-6.4-8l-7.35-8.72a44.11,44.11,0,0,0-2.68-4.7c-3.1-4.2-6.33-8.31-9.51-12.45l9.19-7.67,19,25.94c1.41,1.93,2.73,3.93,4.29,5.74,1.88,2.18,4.3,2.47,6,.7s1.55-3.86,0-5.88c-4.57-6-9.21-12-13.59-18.15-2.48-3.49-4.5-7.3-6.73-11Z"/><path class="cls-3" d="M156.77,334.08c8.26-5.66,16.9-10.61,26.42-13.85a101.7,101.7,0,0,1,24.7-5,77.76,77.76,0,0,1,22.68,1.42c6.54,1.4,12.27,4.48,16.13,10.3,3.22,4.86,3.94,10.28,3.23,15.88-.11.89-2.08,2.37-2.77,2.16a4.44,4.44,0,0,1-2.53-2.89c-.75-3.4-.69-7-1.63-10.34-1.21-4.35-4.9-6.7-8.83-8.23-9.51-3.69-19.45-3-29.36-2.38a71.3,71.3,0,0,0-24.72,6.19c-6.19,2.77-11.92,6.6-17.85,10Z"/><path class="cls-18" d="M473.58,361.89c2.23,3.67,4.25,7.48,6.73,11,4.38,6.16,9,12.13,13.59,18.15,1.53,2,1.75,4,0,5.88s-4.11,1.49-6-.7c-1.55-1.81-2.87-3.82-4.29-5.74l-19-25.94Z"/><path class="cls-9" d="M402.52,167.14c-1.58-2.78-1.35-5.41.93-7.65a5.11,5.11,0,0,1,6.31-1.12c2.55,1.32,3.93,3.51,3.36,6.37-.29,1.44-1.4,2.72-2.14,4.07C407.86,169.74,404.82,170.33,402.52,167.14Z"/><path class="cls-6" d="M146.54,336.39c-5.44-.45-6.13,4.21-7.9,7.74-3-3.86.86-8.4,8.49-10.38,2.73.9,5.48,1.76,8.18,2.75a2.6,2.6,0,0,1,1.43,2.08Z"/><path class="cls-13" d="M376.52,399c.89,1.25,2.61,2.62,2.46,3.73a4.77,4.77,0,0,1-3.19,3.18c-.85.16-2.88-1.81-3-3s1.4-2.62,2.21-3.93Z"/><path class="cls-2" d="M436.48,346.66,435.33,349c-2.31-2.4-4.69-4.73-6.87-7.24-.58-.67-.55-1.86-.79-2.82a11.13,11.13,0,0,1,2.71,1.42C432.49,342.41,434.46,344.56,436.48,346.66Z"/><path class="cls-19" d="M403.3,359.81l3.26-1.31c-1.14,2.34.86,3.3,2,4.61l-1.7,1.79C404.38,364.14,403.78,362,403.3,359.81Z"/><path class="cls-4" d="M419.67,266.17l13.19.43-8.2.25Z"/><path class="cls-4" d="M436.56,266.71q0-.83,0-1.66l11,1.16,0,.5Z"/><path class="cls-20" d="M468.63,319.61l-1.93,1Z"/><path class="cls-8" d="M481.6,361.77l-.54,0A.9.9,0,0,1,481.6,361.77Z"/><path class="cls-21" d="M467.57,389.32l7.35,8.72c-1.69,3.39-.24,6.36,1.08,9.46,2.72,6.37,7.95,9,14.33,9.12,4.71.07,8.87-2.44,11.75-6.08,5.2-6.58,6.05-14,2.24-21.54-2.25-4.44-5.88-7.46-11.35-7.21l-6.72-9.59c5.59-2.7,16.22-.28,22.15,6.11,13.08,14.13,7.74,39.16-10.23,46.37-14.35,5.76-27.71-2.73-31.61-15.72C464.53,402.22,464.53,395.73,467.57,389.32Z"/><path class="cls-9" d="M350.17,88c-1.63-3-3.28-6-4.89-9-.49-.91-.88-1.87-1.32-2.8l5.31-2.69c1.38,5.84,3.61,11.23,8.3,15.26,1.17,1,2.52,1.82,3.65,2.87.39.36.36,1.18.52,1.79C357.26,92.89,352.64,92.72,350.17,88Z"/><path class="cls-10" d="M386.9,69.34c-.5-2.29-2-4.36-3-6.52-.78,1.44.48,4.23-2.45,4-.34,0-.8-3-.68-4.52.47-5.84.55-5.79-5.12-5.85-7.91-.08-15.83-.24-23.74-.37-.18,5.89.6,11.92-2.62,17.35,1.38,5.84,3.61,11.23,8.3,15.26,1.17,1,2.52,1.82,3.65,2.87.39.36.36,1.18.52,1.79l.76.24a16.25,16.25,0,0,1,3.56-.18c5.65.95,9.57-1.41,10.76-6.85a58.07,58.07,0,0,0,1.28-8.9c.12-2,.55-2.9,2.8-3C384.46,74.53,387.46,71.9,386.9,69.34Zm-25.14,12c-1.73-1.94-3.62-4.09-2.56-7.37,1.45,2.14,2.55,4.69,4.45,6.3s4.59,2.26,6.93,3.33A7.55,7.55,0,0,1,361.76,81.36Z"/><path class="cls-22" d="M370.59,83.62a7.55,7.55,0,0,1-8.83-2.26c-1.73-1.94-3.62-4.09-2.56-7.37,1.45,2.14,2.55,4.69,4.45,6.3S368.24,82.55,370.59,83.62Z"/><path class="cls-17" d="M515.75,356v-.66a2.24,2.24,0,0,1,.16.44C515.91,355.84,515.8,355.92,515.75,356Z"/><path class="cls-2" d="M515.06,330.9c-2.28,0-4.57.13-6.84-.05-5.12-.4-10.24-1-15.35-1.46a7.56,7.56,0,0,1-1.32-1c-.75-.85-2.12-2-1.93-2.62.27-.95,1.79-2.32,2.59-2.21C500.21,324.73,508.27,325.89,515.06,330.9Z"/><path class="cls-2" d="M521.33,333.4a.37.37,0,0,1-.1-.38l.83.19Z"/><path class="cls-21" d="M441.6,152a6.58,6.58,0,0,1-1.2,11.26q.23-5.62.46-11.23Z"/><path class="cls-4" d="M441.6,152l-.74,0q.22-1.44.43-2.89Z"/><path class="cls-21" d="M162.39,384.25l7.32-8.63,33.37,2.67,5.1,9.12H197.55a9.58,9.58,0,0,0-1.09-1.83c-6.58-6.94-15.46-7.22-23-.75l-1.77.61-.62-.88-.67.82-3.11,0-4.1-.91Z"/><path class="cls-7" d="M208.18,387.41l-5.1-9.12L223.75,380c-.86,1.55-1.79,3.07-2.56,4.66A31.81,31.81,0,0,0,220,388Z"/><path class="cls-6" d="M222.49,354.66c.09,4.14-2.59,7.32-6,7.54-.84.06-1.74-.69-2.61-1.07.61-.84,1.18-2.34,1.85-2.39,2.54-.17,3-1.45,3.12-3.68,0-.71,1.4-1.37,2.16-2Z"/><path class="cls-6" d="M208.71,353.6c0-4.47,2.54-7.06,6.08-6.94.7,0,1.37.81,2.05,1.24-.48.67-.82,1.62-1.47,1.95-1.36.7-3.09.83-2.88,3,.15,1.53-.24,2.93-2.12,2.43C209.53,355.07,208.95,353.86,208.71,353.6Z"/><path class="cls-21" d="M166.36,418.88c1.41,0,2.82-.08,4.23,0q12.24.61,24.48,1.3a18.66,18.66,0,0,1,2.69.54c-4,4-9.18,5.1-14.46,5.16A22.11,22.11,0,0,1,166.36,418.88Z"/><path class="cls-17" d="M212.06,421.42l2.08-3.55,1.07,1,.33,1.59-.57.28-.11-.4-.21.5a44.93,44.93,0,0,1-23.09,18.43,23.61,23.61,0,0,1-2.66.86c-1.17.27-2.37.42-4.09.71A69.06,69.06,0,0,0,212.06,421.42Z"/><path class="cls-7" d="M217,421.3c-.5,0-1-.56-1.44-.86l-.57.28-.12.17-.19-.07a44.93,44.93,0,0,1-23.09,18.43,23.63,23.63,0,0,1-2.66.86c-1.17.27-2.37.42-4.09.71a69.06,69.06,0,0,0,27.24-19.41l-14.3-.71c-4,4-9.18,5.1-14.46,5.16a22.11,22.11,0,0,1-16.94-7c-3.06-.39-6.14-.67-9.16-1.23-.94-.17-1.73-1.12-2.58-1.72l-2.63-.78a16.7,16.7,0,0,1-9-9.42c-.47-1.14.84-3,1.33-4.56l.55-1.7c.1-4.44.11-4.31,4.08-4.6,1-.07,2-1.2,3-1.84l-.28-1-2.79-3.57c1.35-2.53,3-2.87,4.44-1.43l9.08-2.83,7.32-8.63L141,373.2c-3.09,6.87-5.87,13.87-6.09,21.49-.16,5.3.22,10.62.36,15.93l.77,3.78,1.66,5.43a.36.36,0,0,1,.12.54l7.21,13c3.76,1.65,7.68,3,11.25,5,6.82,3.81,13.44,8,20.13,12,.32.19.46.67.69,1,8.08.55,15.89-.28,23.47-3.52,7.08-3,12.94-7.57,18.41-12.79l8.59-13.13C224,421.74,220.5,421.57,217,421.3Z"/><path class="cls-19" d="M214.66,420.82l.21-.5.11.4-.12.17Z"/><path class="cls-4" d="M135.06,297.86l-.87.68Z"/><path class="cls-4" d="M130.22,298.27l-.59,0A.46.46,0,0,1,130.22,298.27Z"/><path class="cls-23" d="M152.21,298.27c.09-4.37.14-8.74.31-13.1a14.07,14.07,0,0,1,.67-3.67c1.47-4.63,4.8-6.33,9.43-4.84,1.58.51,3.12,1.13,4.68,1.71l-.61,15.53L161.44,298l-1.09.41-1,.12-6.57.08Zm2.29-1.56c2.77.75,4.06,0,4-2.93s.52-5.79.44-8.67c0-1-1.16-2.06-1.79-3.08-.61.9-1.65,1.75-1.76,2.7C155,288.63,154.8,292.56,154.5,296.71Z"/><path class="cls-24" d="M386.79,234.62c-1,.08-2,.23-2.94.23-10.15,0-20.32.46-30.43-.11-13.59-.77-27.13-2.28-40.69-3.58-5.27-.51-10.63-.82-15.73-2.1s-10.64-1.89-15-5.54c-2.89-2.42-3-4.77.26-6.66a17.55,17.55,0,0,1,4.88-2c4.31-1,8.7-2.51,13-2.38,5.48.17,10.91,1.76,16.37,2.73,4.9.87,9.82,1.69,14.71,2.63q8.7,1.67,17.37,3.51c6.34,1.34,12.78,2.37,19,4.25s12.08,4.64,18.09,7.06a5.64,5.64,0,0,1,1.33,1.12Z"/><path class="cls-25" d="M320.64,248.69c-4.23-.53-8.48-.87-12.72-1.3l-11.1-1.33c-6.39-1.21-12.77-2.5-19.17-3.62-5.62-1-11.28-1.73-16.91-2.65-5.94-1-11.86-2-17.78-3.05-14.86-.73-29.73-1.44-44.59-2.22-4.87-.26-6.52.76-8,5.44l-.21,2-.46,1.2.22,1.42-.3,10.44.2,1.79c9.65.45,19.31.85,29,1.34,11.51.59,23,1.25,34.53,1.87,4,.22,8.1.37,12.14.63a11.63,11.63,0,0,1,2.31.63c4.34.1,8.68.17,13,.32A30.63,30.63,0,0,1,284,262c7.09,0,14.19,0,21.28.17,1,0,3.11-1,2.92,1.59h1.88l.27-1c2.59-.08,5.2,0,7.75-.31,1.82-.23,3.55-1.16,5.37-1.5a16,16,0,0,1,3.69.17c.24-3.43.51-7.23.78-11C325.51,249.62,323.1,249,320.64,248.69Zm-.33,7.33c-3.47-.22-3.54,2.07-3.18,4.87h-3.62c.45-2.27.28-4.79,1.44-6.21,1-1.17,3.49-1.09,5.36-1.42.22,0,.85.9.86,1.39S320.59,256,320.32,256Z"/><path class="cls-19" d="M308.19,420.59l3,.38Z"/><path class="cls-9" d="M311,263.9l7.76.75V268c3.42,1,6,0,7.86-3.17v9.62l-.33,6.93-.84,5.62-22.62-1.14c-5.32-.29-10.64-.57-16-.87-13-.74-26.08-1.58-39.12-2.23-14.71-.73-29.42-1.3-44.14-1.94-3.17-.3-6.35-.51-9.5-.94-2.83-.38-4.5-2.26-5.49-4.84l.06-5.66.07-4.33.41-2.75,7.61-.33,23.27.29,19.74.62.83-.69-.53-.85-43.32-.46-7.43-1.09,0-.07.26-3,.2,0c9.65.45,19.31.85,29,1.34,11.51.59,23,1.25,34.53,1.87,4,.22,8.1.37,12.14.63a11.63,11.63,0,0,1,2.31.63l-5.73.25c-7,.11-14-1-20.91.68l0,1.08h37.08l15.37.53,14.64,0h1.88Z"/><path class="cls-26" d="M308.21,263.78l-14.64,0-15.37-.53H241.11l0-1.08c6.88-1.71,13.93-.57,20.91-.68a17.94,17.94,0,0,0,4,.87c6,0,12-.23,18.06-.36,7.09,0,14.19,0,21.28.17C306.29,262.21,308.4,261.17,308.21,263.78Z"/><path class="cls-27" d="M317.14,260.88h-3.62c.45-2.27.28-4.79,1.44-6.21,1-1.17,3.49-1.09,5.36-1.42.22,0,.85.9.86,1.39s-.58,1.39-.86,1.37C316.85,255.79,316.78,258.08,317.14,260.88Z"/><path class="cls-27" d="M284,262c-6,.14-12,.33-18.06.36a17.94,17.94,0,0,1-4-.87l5.73-.25c4.34.1,8.68.17,13,.32A30.64,30.64,0,0,1,284,262Z"/><path class="cls-26" d="M311,263.9l-.92-.12.27-1Z"/><path class="cls-3" d="M129.77,204.73h51.43c5.76,0,6.5,1.34,4.61,6.84-1.08,3.16-2.68,4-6,3.91-19.39-.6-38.79-.87-58.19-1.37-11.56-.3-23.11-.79-34.67-1.24-3.85-.15-7.69-.49-11.53-.58-1.78,0-2.48-.71-2.34-2.43a10.29,10.29,0,0,0,0-2.19c-.32-2.4.77-3,3.05-3,9,.11,18,0,27,0Z"/><path class="cls-2" d="M323.73,353l11.24.75-.88,1.74-10.43-.1Z"/><path class="cls-4" d="M295.37,303l10,.36Z"/><path class="cls-28" d="M493,381.79c5.46-.25,9.1,2.77,11.35,7.21,3.82,7.52,3,15-2.24,21.54-2.88,3.64-7,6.15-11.75,6.08-6.38-.1-11.61-2.75-14.33-9.12-1.32-3.1-2.77-6.07-1.08-9.46,2.12,2.66,4.06,5.49,6.4,8,4.6,4.84,11,5,16.15.62a11.84,11.84,0,0,0,1.75-16C497.06,387.76,495.05,384.75,493,381.79Z"/><path class="cls-5" d="M203.62,280.81c14.71.64,29.43,1.21,44.14,1.94,13,.65,26.08,1.48,39.12,2.23,5.32.3,10.64.58,16,.87a11.58,11.58,0,0,1-2.62,1.44,25.88,25.88,0,0,0-16.14,11.49q-29.18-.1-58.35-.19-30.12-.12-60.23-.29c-1.35,0-2.7-.18-4-.27l5.24-4.14,21.21-8.53c5.08-1.18,10.16-2.35,15.23-3.58C203.35,281.73,203.46,281.15,203.62,280.81Z"/><path class="cls-8" d="M325.58,300.09l-.21.62-41.3-1.92a25.88,25.88,0,0,1,16.14-11.49,11.58,11.58,0,0,0,2.62-1.44L325.45,287Z"/><path class="cls-4" d="M159.39,298.57l1-.12Z"/><path class="cls-16" d="M352.3,367.36c-1.73,1.15-2.71,2.31-3.53,2.2a3.3,3.3,0,0,1-2.32-2.19,3.08,3.08,0,0,1,2-2.34C349.48,365,350.49,366.19,352.3,367.36Z"/><path class="cls-4" d="M337.69,358.66l1,.49Z"/><path class="cls-4" d="M399.49,265.79l-.74,0Z"/><path class="cls-5" d="M425.18,344.62c1.57,2.18,3.06,4.1,4.32,6.16.16.26-.72,1.53-1.35,1.8a2.43,2.43,0,0,1-2.06-.59,24.45,24.45,0,0,1-3-3.51c-.36-.49-.68-1.42-.45-1.84C423,346,423.81,345.64,425.18,344.62Z"/><path class="cls-16" d="M408.6,363.11c-1.18-1.32-3.18-2.27-2-4.61a11.3,11.3,0,0,1,3.32,1.76C410.15,360.54,409.07,362.12,408.6,363.11Z"/><path class="cls-16" d="M197.55,387.4c-7.28-.62-14.56-1.22-21.84-1.87a11,11,0,0,1-2.26-.7c7.54-6.47,16.42-6.2,23,.75A9.57,9.57,0,0,1,197.55,387.4Z"/><path class="cls-28" d="M171.68,385.44l-1.29-.06.67-.82Z"/><path class="cls-7" d="M147.35,402.73a3,3,0,0,1,.47-.24c4.38.5,2.14,3.6,2.31,5.76C148.41,406.8,145.9,405.75,147.35,402.73Z"/><path class="cls-8" d="M187.89,285.36l-21.21,8.53.61-15.53Z"/><path class="cls-27" d="M188.69,269.38l-.06,5.66Z"/><path class="cls-23" d="M154.5,296.71c.3-4.15.47-8.08.93-12,.11-1,1.15-1.8,1.76-2.7.63,1,1.76,2,1.79,3.08.08,2.88-.47,5.78-.44,8.67S157.27,297.46,154.5,296.71Z"/><path class="cls-18" d="M220.05,262.25,196.79,262v-1.09l43.32.46.53.85-.83.69c-.3-.26-.61-.75-.91-.75C232.6,262.14,226.33,262.2,220.05,262.25Z"/><path class="cls-27" d="M220.05,262.25c6.28-.05,12.55-.12,18.83-.13.3,0,.61.49.91.75Z"/><path class="cls-27" d="M278.19,263.27l15.37.53Z"/><path class="cls-27" d="M196.78,260.88V262l-7.62.33-.12-2.11.35-.42,0,0Z"/><path class="cls-27" d="M189,260.18l.54-3.44-.26,3,.07,0Z"/><path class="cls-26" d="M240.62,262.19l-.53-.85Z"/><polygon class="cls-26" points="189.39 259.76 189.33 259.71 189.35 259.78 189.39 259.76"/><path class="cls-4" d="M337.4,351.64l-.53.61Z"/><path class="cls-29" d="M354.68,359.46l2.9.64Z"/><path class="cls-29" d="M361,360.21,362,360Z"/><path class="cls-9" d="M191.15,238.5s-3.9,24.63-2.23,28.65,137.31,9.3,137.31,9.3l1.49-23.81Z"/><polygon class="cls-8" points="325.11 296.55 325.49 307.34 153.94 301.76 161.4 298.02 173.08 293.35 323.27 297.24 325.11 296.55"/><path class="cls-5" d="M129.7,249.33l2.58.49h56.37l1.24-5.26-.22-1.42c-.47-1.93-1.65-2.64-3.63-2.41a22.71,22.71,0,0,1-3.74-.15c-1.88,0-3.75.07-5.63.07l-49.43.08L126,241.81l-2.68,2.79,2.68-2.79h-4.13q-31.18,0-62.36-.13a15.51,15.51,0,0,1-3.43-.81l0-.22c-1.14,0-2.28.06-3.41.12-3,.16-5.18,2.22-5.06,4.77s2.15,4.19,5.19,4.24c4,.06,8.09.07,12.13.1a11.4,11.4,0,0,0,1.23-.12,12.51,12.51,0,0,1,10.54,2.41l-.13,0,4.81,4.45a17.51,17.51,0,0,0,2.09,1.94L87,261.87l.31.41,1,.76,11.23,10.39,0,.34v-.09l.38.14,40.86,37.82,4.67-3.89L134.89,298l.16-.13-.11-.12.07-.15c-6-5.44-12-10.83-17.93-16.32-4.14-3.84-14.48-13.19-14.51-13.16S84.29,250.28,84.48,250c10.78,0,37.84-.28,38.63-.45a7.77,7.77,0,0,1-1.17-1.48,22.65,22.65,0,0,0,4.23-.27C127.86,247.43,129.3,247,129.7,249.33Z"/><path class="cls-5" d="M518.63,328.56a110,110,0,0,0-13.88-5c-4.24-1.16-11.18-1.54-13.11-1.93s-10.41,4.63-10.41,4.63l-22.9-.91.21-.14c2.67-1.61,5.43-3.09,8.15-4.62l1.93-1h0c.2-.42.29-1.07.61-1.22,5.89-2.79,11.68-5.87,17.77-8.17,4.92-1.86,6.11-2.85,5.82-8.17,0-.52-.14-1-.2-1.55-1.43-12.2-5.86-23.47-11.76-34q-11.14-19.93-23.79-39c-8.14-12.27-17-24.27-28.49-33.54-6.1-4.93-8.35-9.76-7-16.94.08-.41-.15-1,.07-1.22a9,9,0,0,1,1.7-1.12l6.43,3.46,3.65.38c.44-10.51.86-21,1.33-31.54.09-2.11.37-4.2.56-6.3a16.16,16.16,0,0,0-15.8,13.61c-.13,1-1.15,1.94-1.94,3.19l.42,4.45c1.19,0,2.4,0,3.58.08-1.18-.09-2.39,0-3.59-.07a8.17,8.17,0,0,1-2.12,6.37l-4.87.52c-3.11.94-6.16,1.53-8.45-1.66-2,.61-4.1,1.11-6.06,1.9-.66.26-1,1.25-1.54,1.9-.17,4.95-.4,9.89-.47,14.84a54.93,54.93,0,0,0,.51,5.8c4.46,6.8,9.18,13.45,13.29,20.45a105.69,105.69,0,0,1,7.19,15.45c1.77,4.6,2.88,9.47,4.21,14.24.85,3.06,1.71,6.14,2.31,9.26.82,4.27,1.4,8.58,2.08,12.88l12.54,1.2,11,1.16,0,.5h-11l-3.71-.11-8.2.25c.21,6.88.76,13.77.54,20.64a169.76,169.76,0,0,1-2,22.36,112.33,112.33,0,0,1-9.44,30.27c-5.69,11.82-13.87,21.65-25.61,28.06-1.89,1-4,1.74-6.15,2.68l.86,2.26c-3.16,2.16-3.21,2.14-4.35-.81H361.85l-36.62-3.47c-1.56-.15-3.12-.21-4.68-.32-4.29,0-8.66.57-12.84-.1-3.38-.54-6.67-2.27-9.73-4-9.46-5.23-15.65-13.56-19-23.47-2.42-7.17-3.76-14.92-1.56-22.69,1.12-4,1.8-8.06,2.94-12,.36-1.24,1.57-2.24,2.39-3.34-11.79-.17-23.58-.29-35.37-.53q-43.19-.89-86.38-1.87a19,19,0,0,0-4.63.22,16.16,16.16,0,0,0-4.5,2.39c-2.08,1.45-4,3.09-6.18,4.76L137.2,300l-6.45-.12,4.57,5.27,0,0,2,1.83,0,0c1.32,1.09,2.66,2.15,3.92,3.31.14.13-.22.8-.34,1.22-4.25,3.92-8.63,7.7-12.72,11.78a172.19,172.19,0,0,0-27.36,34.72c4.51.41,9,.92,13.54,1.19,3.21.19,6.44,0,9.66,0l5.21-6.23a34.17,34.17,0,0,1,3-3.54,8.79,8.79,0,0,0,3.16-7.09c0-5.1,5.1-10.07,10.23-10.24.5,0,1,1.09,1.56,1.67,2.73.9,5.48,1.76,8.18,2.74a2.6,2.6,0,0,1,1.43,2.08l-10.21-2.18c0,1.82.3,3.44-2.11,4.52-1.56.7-2.5,3.21,0,4.39,2.27,1.06,2.12,2.72,2.1,4.59,0,4.53.05,4.76,4.43,3.67a36.9,36.9,0,0,0,10.27-3.75c5.33-3.25,5.52-6.53,1.54-11.45a5.53,5.53,0,0,1-.54-1.09l-5.48-3.18-6.69-1.85a13,13,0,0,1,1.81-2.5A116.66,116.66,0,0,1,176.8,314a102.74,102.74,0,0,1,26-8c12.8-2.24,25.65-2.58,38.35.49,9.29,2.24,15.77,8.05,18.06,17.41a29.07,29.07,0,0,1-.15,12.11c-2.12,10.82-6.8,20.71-12.47,30.1-2.63,4.36-5.59,8.52-8.37,12.79a9.87,9.87,0,0,0-.71,1.7l4.94.83c0,2.39,0,4.56,0,6.73.27,10.37,8.88,19.2,19.58,19.83,25.74,1.53,51.51,2.7,77.26,4.1,16.68.91,33.35,2,50,3a13.51,13.51,0,0,1,2.1.46c5.17-.23,10.37.69,15.41-1.67,7-3.26,11-8.58,12.7-15.9,1.33-5.73,2.63-11.46,3.94-17.19l.94.09c-.08,1-.1,2-.23,3.06-.58,4.44-1.15,8.88-1.81,13.31-.33,2.21.72,2.71,2.66,2.68,5.29-.08,9.29-2.78,12.86-6.26,1.85-1.81,3.45-3.88,5.16-5.83,3.51-4.68,7-9.37,10.54-14a14.12,14.12,0,0,1,1.77-1.66l9.19-7.67,9-2.61,4.5.1,3-.25a.89.89,0,0,1,.54,0l7.3.13c3.07.4,4.68-1.45,5.93-3.85,3.19-6.12,8.38-10.31,14-13.79a43.91,43.91,0,0,1,7.55-3.38c3.41-.29,6.06-.75,6.06-.75l4.39-1.65S520.95,329.72,518.63,328.56ZM429.17,169.81a2.57,2.57,0,0,1,.49.36,2.57,2.57,0,0,0-.49-.36.89.89,0,0,0-.44-.14A.89.89,0,0,1,429.17,169.81ZM375.8,405.92c-.85.16-2.88-1.81-3-3s1.4-2.62,2.21-3.93l1.51,0c.89,1.25,2.61,2.62,2.46,3.73A4.77,4.77,0,0,1,375.8,405.92ZM387,391.14c-7.78-.48-15.55-1.11-23.32-1.74-3.36-.27-6.94-1.63-10-.86-5.81,1.45-11.26-.29-16.86-.52-13.32-.53-26.63-1.25-39.94-1.88-4.58-.22-9.15-.45-13.73-.6-3.69-.12-6.59-2.36-6.61-5.26s2.7-4.76,6.54-4.81h2.72c12.58.63,25.37,1.26,38.16,1.92,7.48.39,15,.76,22.44,1.25,11.62.76,23.23,1.64,34.85,2.43,2,.13,4,0,6,.07,3.14.08,5.49,2.21,5.42,4.86A5.7,5.7,0,0,1,387,391.14Zm53.06-40.66c-3.72,6-7,12.23-10.33,18.44a65,65,0,0,0-2.69,6.55l-.74-.19c.61-2.28,1.09-4.61,1.86-6.84,1.46-4.17,3.11-8.28,4.65-12.43.39-1,.76-2.07,1.14-3.11,1.75-3.22,3.07-5.66,3.32-6,.75-1,5-3.33,5-3.33s2.37-3.69,2.11-4.75c-.07-.26-.12-.64-.18-1.08l3.44-3.41,1.62.76,3.12.3A75.41,75.41,0,0,0,440.06,350.48ZM446.45,283c-4-4.23-3.33-5.59.93-9.31,3.89-3.4,8.85-6,14.64-4.7h0c5-1.09,10.79,1.82,12.14,6.14a12.16,12.16,0,0,1-5.7,14.4c-4.63,2.49-8.88.59-12.94-.76A22.84,22.84,0,0,1,446.45,283Z"/><path class="cls-8" d="M527.74,347.16c-2.41-2.78-5.42-5-8.16-7.52-3.58,1.51-7.42,2.61-10.7,4.62-5.67,3.49-10.86,7.67-14,13.79-1.25,2.4-2.87,4.25-5.93,3.85.44.24.87.69,1.32.71,10.12.46,20.25.88,30.37,1.31l3.79.5.07.09,5.31.32,7.41.07C536,357.92,532.2,352.31,527.74,347.16Z"/><path class="cls-7" d="M529.75,364.82l-1.55-.09-.06-.19-7.52-.56,0-.06-1.86-.08-3.19-.24.06.11q-12.69-.53-25.39-1.1c-.45,0-.88-.46-1.32-.71l-7.3-.13-.54,0-3,.25,8.17,10.21c5.59-2.7,16.22-.28,22.15,6.11,13.08,14.13,7.74,39.16-10.23,46.37-14.35,5.76-27.71-2.73-31.61-15.72-2-6.75-2-13.24,1-19.65a44.11,44.11,0,0,0-2.68-4.7c-3.1-4.2-6.33-8.31-9.51-12.45a14.12,14.12,0,0,0-1.77,1.66c-3.54,4.66-7,9.34-10.54,14-.32,6.23-1,12.48-.87,18.7.16,9.29,3.61,17.64,8.52,25.42.93,1.47,1.94,2.9,2.91,4.35l4.41,4.62.06,0,1.16.92,15.42,7.48c.3-.44.86-1.25,1.38-2.08,2.12-3.36,5-4.39,8.42-2.57,4,2.09,7.77,4.53,11.64,6.82l2-.19.1-.12.15,0c2.5-1,5.21-1.56,7.45-2.93,5.58-3.41,10.94-7.17,16.39-10.79a17.31,17.31,0,0,1,1.27-1.74c9.79-10.52,14.73-23.11,15.49-37.32A55.36,55.36,0,0,0,529.75,364.82Z"/><path class="cls-8" d="M422,251c-.6-3.12-1.46-6.19-2.31-9.26-1.33-4.77-2.43-9.64-4.21-14.24A105.69,105.69,0,0,0,408.25,212c-4.11-7-8.83-13.65-13.29-20.45.48,3.48.48,7.12,1.53,10.42,2.62,8.31,5.54,16.53,8.63,24.68,4.47,11.78,6.63,24,8.13,36.47l10.8.7C423.37,259.56,422.79,255.24,422,251Z"/><path class="cls-8" d="M448.78,267.51l-1.2-1.89-34.33-2.47.31,3.84h.35c-.34,10.28-.41,20.58-1.14,30.83-1.8,25.38-15.36,43.66-35.78,57.51-4.26,2.89-8.88,5.26-13.34,7.87l-4.8,2.45,3,6.64h16.67c1.15,3,1.19,3,4.35.81l-.86-2.26c2.19-.94,4.26-1.64,6.15-2.68,11.74-6.41,19.92-16.24,25.61-28.06a112.33,112.33,0,0,0,9.44-30.27,169.76,169.76,0,0,0,2-22.36c.22-6.77-.31-13.56-.53-20.34Z"/><path class="cls-30" d="M403.7,233.36a37.89,37.89,0,0,0-7.81-6c-9.08-5.27-19.12-8.1-29.24-10.42-9.65-2.21-19.39-4.1-29.17-5.62-8.33-1.3-16.77-1.88-25.17-2.78l8.66,1.56-8.66-1.56L301,207.16c-2.3.44-4.6.93-6.91,1.31q-29.46,4.85-58.92,9.66c-.2,7.38.74,14.28,7.81,18.61,5.93,1,11.85,2.08,17.78,3.05,5.63.92,11.29,1.67,16.91,2.65,6.41,1.12,12.78,2.4,19.18,3.61l11.1,1.33c4.24.42,8.49.76,12.72,1.3,2.46.31,4.87.93,7.3,1.41l4.52.89L359,254.61l-3,7.23h0l-1.34,3.35-12.6,33.48-.15-.05-2.81,8q-5.88,15.95-11.92,31.83a25.35,25.35,0,0,1-1.61,3l-3.49,10.45,1.65,1.16,11.24.75,1.9-1.5.53-.61.55-.67c3.67-5.59,7.31-11.19,11-16.74,1.21-1.81,2.66-3.46,4-5.18,2.75-4.53,5.53-9,8.26-13.59-2.73,4.54-5.52,9.05-8.26,13.59l-4.39,30,6.08.41,2.9.64,3.4.11L362,360a5.58,5.58,0,0,0,1-1.17c3.79-8.31,7.71-16.56,11.3-25,5.47-12.8,10.89-25.63,16-38.57,3.78-9.57,7-19.35,10.5-29l1.44-3.42c1.24-5.48,2.64-10.93,3.68-16.45C406.82,241.82,407.35,237,403.7,233.36Zm-7.92,18-.14.45Zm-.53,1.68-.14.41Zm-.59,1.69-.09.23Zm-7.88-20.08c-1,.08-2,.23-2.94.23-10.15,0-20.32.46-30.43-.11-13.59-.77-27.13-2.28-40.69-3.58-5.27-.51-10.63-.82-15.73-2.1s-10.64-1.89-15-5.54c-2.89-2.42-3-4.77.26-6.66a17.55,17.55,0,0,1,4.88-2c4.31-1,8.7-2.51,13-2.38,5.48.17,10.91,1.76,16.37,2.73,4.9.87,9.82,1.69,14.71,2.63q8.7,1.67,17.37,3.51c6.34,1.34,12.78,2.37,19,4.25s12.08,4.64,18.09,7.06a5.64,5.64,0,0,1,1.33,1.12Zm4.78,28v0Z"/><path class="cls-8" d="M480.6,318.87c.68-.31.64-.88,1.21-1.36-.33.28-2.77-.13-3.31-.12a29.6,29.6,0,0,0-10.4,2.12,52,52,0,0,0-12.2,7.29,121.25,121.25,0,0,0-11.71,10.39,73.86,73.86,0,0,0-7.12,7.67,37.07,37.07,0,0,0-4.76,9.92c-2.45,6.86-5.14,13.59-7.07,20.62.87.1,2.71.36,3-.44a154,154,0,0,1,18.94-32.7,71.3,71.3,0,0,1,28.47-21.79c.88-.39,1.75-.8,2.64-1.17C478.87,319.1,480.09,319.1,480.6,318.87Z"/><path class="cls-24" d="M338.11,123.17c-3.11-9.39-5.92-18.88-8.85-28.33l-2.19-6.67-1.31-.39c-5.9.06-11.81.1-17.72.21,5.91-.11,11.81-.14,17.72-.21l-3.47-4.58c.67-2.44,1.36-4.59,1.78-6.79.08-.42-.86-1.44-1.37-1.47s-1.55.9-1.51,1.32c.3,2.71-1.28,3.42-3.38,3.06-2.52-.43-5-1.3-7.45-2l-5-.05,0,.66c-7.7,1.58-15.46,2.59-22.77,5.62-7.64,3.17-14.43,8.08-20.82,13.28-31.15,25.37-39.18,72.29-29.58,109.51.26,1,2.82,11.8,3,11.77q29.46-4.83,58.92-9.66c2.31-.38,4.61-.87,6.91-1.31,0-16-.48-31.94,2.07-47.79l2.76-12.64a40.69,40.69,0,0,1,3.9,4.4c1.4,2.19,2.84,1.64,4.33.35q9.5-8.24,18.95-16.55c.6-.49,1.17-1,1.81-1.46C339.76,130.2,340,128.87,338.11,123.17Z"/><path class="cls-2" d="M187.6,197.83c-.05-.84-.43-3.79-.41-3.8h.12c-.19-3.43-.61-6.87-.5-10.29.09-2.74-.69-3.6-3.51-3.52-12.41.35-24.83.46-37.25.71-5,.1-10,.44-15,.53-13.88.24-27.76.41-41.64.6-8.72.12-17.45.11-26.18.13-3.72,0-3.29,2.39-3.36,5.41l-.22,9.77c-.06,2.5,1.17,3.47,3.61,3.41q47.72-1.24,95.42-2.07,14.46-.27,28.91-.68A1.73,1.73,0,0,0,187.6,197.83Zm-68-4.4c-6.69,0-13.39-.07-20.08,0q-15.66.22-31.31.64c-5.59.16-6.73-.8-6.27-6.43a4,4,0,0,1,1.94-2.46,6.27,6.27,0,0,1,3-.54c15.56-.24,31.13-.42,46.69-.66,11.54-.18,23.08-.32,34.62-.67,6.13-.19,12.25-.88,18.38-1.1a3.72,3.72,0,0,1,2.85,1.93,24.07,24.07,0,0,1,1.38,6.67c0,.6-1.29,1.8-2.06,1.87-2.7.24-5.43.1-8.15.1-4.59,0-9.18-.06-13.76,0-9,.16-17.95.4-26.92.61Z"/><path class="cls-10" d="M345.28,79c-.49-.91-.88-1.87-1.32-2.8L336.06,75l-5.48-1-.14-1-9.76-7.74-1,2.07c-1.7,2.46-3.3,5-5.17,7.33-.51.64-1.84.61-2.8.89l-1.34,1.78h0l18.87,17.5h0L334.1,92l-.07-.23c2-1.25,3.94-2.52,5.86-3.84,2.51-1.73,4.84-2.63,7.58-.45.62.5,1.79.31,2.7.44C348.53,85,346.89,82,345.28,79Z"/><path class="cls-14" d="M176.4,450.37c-6.69-4-13.31-8.21-20.13-12-3.57-2-7.49-3.37-11.25-5l-9.7,3.05-5.09,6.24c.44-2.6-.17-8.17-8.36-17.53-8.34-9.53-34.25-.46-49.32,6a15.47,15.47,0,0,0-2.76-.23c-5,.1-7.25,1.66-7.79,5.08l-.63.32.55.29a13.41,13.41,0,0,0,0,1.64c.41.46.85.89,1.23,1.38,4.05,5.32,8.61,10,14.92,12.7h24.7l1.8-.34,17-.32,55.55-.17C176.87,451,176.72,450.56,176.4,450.37Zm-99.29-5.11c.93.62,1.79,1.22,2.53,1.79h-.07A4.1,4.1,0,0,1,77.12,445.26Z"/><path class="cls-10" d="M418,161.91c-.15-1.65-.31-3.29-.41-4.46l-1-2.49c-2.6-1-5.2-2.43-8-3-3.36-.63-6.16,1-8.41,3.64-.64.76-2,.92-3,1.36-8.24-.2-16.48-.46-24.72-.57-7.52-.11-15-.05-22.57-.08-5.36,0-5.16-.12-7.48-5.08-2.66-5.68-6.2-10.87-9.3-16.31-6.81,4.18-13,11.19-19.08,16.49-1.49,1.29-2.93,1.84-4.33-.35a40.71,40.71,0,0,0-3.9-4.4L303,159.37c3.51,3.94,7,7.92,10.55,11.82,2.17,2.38,4.5,4.61,6.68,7,5.18,5.64,11.87,4.3,18.17,3.61,6.81-.75,13.52-2.31,20.28-3.52-.47-.21-.95-.57-1.41-.73.47.16.94.52,1.41.73,6.24-1.45,12.49-2.87,18.73-4.34,4.63-1.1,9.23-2.34,13.89-3.34,1.12-.24,2.39.22,3.59.35.5-.65.88-1.64,1.54-1.9,2-.78,4-1.28,6.06-1.9-1.58-2.78-1.35-5.41.93-7.65a5.11,5.11,0,0,1,6.31-1.12c2.55,1.32,3.93,3.51,3.36,6.37-.29,1.44-1.4,2.72-2.14,4.07l4.87-.52A8.17,8.17,0,0,0,418,161.91ZM333.9,139.36c.17-.26.6-.34,1-.42-.43.08-.86.16-1,.42l-2.32,3.36ZM341.24,178a5.54,5.54,0,0,1-.92-.41,5.53,5.53,0,0,0,.92.41,5.92,5.92,0,0,0,1.47.31A5.92,5.92,0,0,1,341.24,178Z"/><path class="cls-11" d="M435.16,138.62l-.07-.07a.57.57,0,0,0-.34-.07,18.22,18.22,0,0,0-10.47,3.31,20,20,0,0,0-7.17,11,5.81,5.81,0,0,0,.4,4.53c1.59-1,1.91-3.14,2.41-5a16.11,16.11,0,0,1,5.66-8.31,14.29,14.29,0,0,1,4.8-2.39c1-.31,4.58-.4,4.92-1.55a2.54,2.54,0,0,0,0-1.17A.78.78,0,0,0,435.16,138.62Z"/><path class="cls-19" d="M301.43,417.85c-.19-2.12-.67-4.17-3.28-4.36-9.53-.68-19.07-1.35-28.61-1.91-6.16-.36-12.33-.41-18.48-.78-4.61-.28-9.2-.84-14.05-1.3.13-2.42.23-4.34.34-6.26s.37-4.08.34-6.12c0-3.3-1.49-7.19-4.65-8.61a16.23,16.23,0,0,0-5.83-1c-9.52-.5-19-.93-28.55-1.46-8.94-.51-17.86-1.43-26.81-1.72A106,106,0,0,1,161,383c-2.42-.62-9.32,1.36-12,2.17h-.1l-.24.12-.71.23.14.11c-.81.53-1.82,1.45-.94,2.47l.16.19a4.37,4.37,0,0,0,.79,1c.84,1.08,1.49,1.94,2.36,1.94s22.44-1.12,28.9-1.46c11.82.79,23.65,1.79,35.44,1.79,4.25.22,8.5.53,12.75.6,2.45,0,4.11,1.11,4.16,3.47.05,2.57-1.66,3.78-4.26,3.63l-27.73-1.68-12.09-.71c-3.64-.21-7.29-.4-11-.48q-2.35-.05-4.72,0c-4.48-.65-21.77-3.18-22.18-3.32a17.23,17.23,0,0,0-4-.82c-3.87.3-4.39,7.19-4.49,10.56-.22,7,10.3,15.36,11.52,15.57,9.26,1.62,22.8,1.38,32.17,1.69,5.53.19,11.05.64,16.57,1.12,3.69.32,24.15,2.29,28.88.29,1.72-.72,3.27-1.79,5-2.53,3.64-1.57,8.64-.34,12.49-.12l16.17.91q16.17.89,32.35,1.7c1.57.08,3.2-.82,4.8-1.26A12.45,12.45,0,0,0,301.43,417.85ZM148.48,407.79c-1.77-1.5-4.33-2.6-2.84-5.71a3.06,3.06,0,0,1,.48-.24l.85-.46-.85.46C150.59,402.35,148.3,405.55,148.48,407.79Zm4.83,2.86a2.58,2.58,0,0,0,.85-.87A2.58,2.58,0,0,1,153.31,410.64Z"/><path class="cls-31" d="M363.65,363.21c-3.72-3.47-8.67-3.12-12.49-1.89-3.49,1.13-6.07-.16-9-.4-1-.08-1.95-.94-2.92-1.45l-.56-.32-1-.49-3.61-3.17-10.43-.1c-.62,1-1.61,2-1.8,3-.6,3.33-.89,6.72-1.3,10.09,1.56.1,3.12.17,4.68.32l36.62,3.47-3-6.64Z"/><path class="cls-6" d="M474.15,275.13c-1.29-4.12-6.6-7-11.45-6.25-1.85-.14-3.38-.36-3.38-.36a6,6,0,0,0-.84.16c-4.28.17-8,2.34-11.08,5-4.26,3.72-4.94,5.08-.93,9.31a22.84,22.84,0,0,0,9.06,5.77c4.06,1.35,8.3,3.25,12.94.76A12.16,12.16,0,0,0,474.15,275.13Z"/></g></g></svg>